<svg version="1.1" id="Layer_1" xmlns="http://www.w3.org/2000/svg" xmlns:xlink="http://www.w3.org/1999/xlink" x="0px" y="0px"
	 width="100%" viewBox="0 0 460 460" enable-background="new 0 0 460 460" xml:space="preserve">
<path fill="#020202" opacity="1.000000" stroke="none"
	d="
M0.999999,247.000000
	C1.000000,236.645767 1.000000,226.291550 1.397539,215.316467
	C2.026489,212.716415 2.339390,210.742874 2.476760,208.757187
	C3.918866,187.911392 9.006728,167.808838 16.456274,148.460419
	C23.244087,130.830688 32.242519,114.216652 43.268726,98.700851
	C54.202698,83.314865 66.696091,69.391273 80.909904,57.111546
	C99.334831,41.193714 119.819206,28.432077 142.385513,19.058270
	C159.899292,11.783223 177.971695,6.653389 196.714920,3.847491
	C203.141357,2.885442 209.571533,1.948444 216.000000,1.000000
	C225.354233,1.000000 234.708450,1.000000 244.710068,1.390404
	C253.465134,2.571450 261.675507,2.798867 269.661896,4.254879
	C297.225433,9.280032 323.352631,18.410801 347.570862,32.718422
	C367.121368,44.268448 384.732788,58.263390 400.110138,74.932724
	C415.228455,91.321297 427.879150,109.478706 437.658325,129.595612
	C447.639923,150.128891 454.838318,171.524307 458.271820,194.136154
	C459.176117,200.091553 460.090363,206.045425 461.000000,212.000000
	C461.000000,224.687561 461.000000,237.375122 460.638824,250.740295
	C457.456970,266.913727 456.024292,282.824768 451.537994,297.822327
	C440.905182,333.367462 422.498718,364.685608 396.420074,391.376312
	C375.549835,412.736389 351.649872,429.595337 324.336792,441.684113
	C305.766296,449.903442 286.502563,455.653748 266.413177,458.614441
	C260.617462,459.468597 254.804855,460.208008 249.000000,461.000000
	C236.645767,461.000000 224.291550,461.000000 211.279053,460.630432
	C207.502258,459.851929 204.389435,459.391846 201.264297,459.041931
	C167.460800,455.257294 136.496185,443.638641 108.360313,425.171509
	C112.188591,421.333466 115.503372,417.477264 119.096100,413.900238
	C123.572510,409.443268 128.278183,405.216614 133.068863,401.105103
	C146.510544,409.649261 160.898697,415.379974 175.862640,419.751282
	C203.315918,427.771027 231.195938,430.005005 259.543213,425.817413
	C282.329071,422.451416 303.834381,415.194855 324.622040,404.791931
	C328.451233,410.236755 331.920380,415.524445 335.648651,421.207062
	C343.975250,417.012390 352.359375,412.765625 360.765839,408.563629
	C364.987122,406.453674 365.062408,403.965149 362.749359,399.927032
	C359.664307,394.541046 357.564789,388.590546 355.387695,382.927887
	C364.402527,374.581604 373.770447,366.790039 381.597137,357.675079
	C398.605469,337.867188 410.989563,315.310089 418.703278,290.245117
	C427.441864,261.849854 430.176788,232.997528 425.867798,203.551376
	C421.222565,171.807556 409.662567,142.848145 390.918762,116.765282
	C372.583984,91.251602 349.429718,71.307762 321.635712,56.755802
	C296.741669,43.722168 270.150879,36.688282 242.147156,35.108887
	C220.760300,33.902672 199.684601,36.030327 178.712662,41.967300
	C174.894333,36.370277 171.422821,30.827692 167.635239,24.780445
	C157.825317,29.893406 147.929398,35.051197 137.756104,40.353554
	C139.400696,43.713306 140.918091,46.472717 142.111969,49.365639
	C142.983444,51.477325 143.428818,53.764866 143.685684,55.899334
	C135.573853,60.237129 127.465897,64.108742 120.174057,69.158745
	C93.267479,87.793007 72.059105,111.618576 56.861229,140.679489
	C43.609119,166.019791 36.575706,193.058319 35.044548,221.558350
	C33.666103,247.215836 37.391380,272.234497 45.726303,296.442261
	C52.113407,314.992798 61.027081,332.518280 73.231041,347.882935
	C81.936172,358.842590 92.339096,368.453705 101.984589,379.006653
	C101.053131,381.001923 100.353027,382.852631 99.149345,384.278107
	C94.170662,390.174255 89.039566,395.941711 83.766403,401.983368
	C85.064949,403.343719 85.999580,404.470978 87.082100,405.431580
	C92.141045,409.920959 97.312332,414.286987 102.275566,418.878632
	C103.513695,420.024048 104.127815,421.843964 104.676422,423.268494
	C102.145523,421.670685 99.951111,420.180542 97.790909,418.642334
	C79.580650,405.675446 63.607777,390.376190 49.875549,372.730255
	C36.980827,356.160492 26.501043,338.218323 18.495865,318.783051
	C11.461473,301.704712 6.604214,284.068542 3.843139,265.830200
	C2.892967,259.553833 1.947571,253.276749 0.999999,247.000000
z"/>
<path fill="#FEFEFE" opacity="1.000000" stroke="none"
	d="
M215.531342,1.000000
	C209.571533,1.948444 203.141357,2.885442 196.714920,3.847491
	C177.971695,6.653389 159.899292,11.783223 142.385513,19.058270
	C119.819206,28.432077 99.334831,41.193714 80.909904,57.111546
	C66.696091,69.391273 54.202698,83.314865 43.268726,98.700851
	C32.242519,114.216652 23.244087,130.830688 16.456274,148.460419
	C9.006728,167.808838 3.918866,187.911392 2.476760,208.757187
	C2.339390,210.742874 2.026489,212.716415 1.397539,214.847809
	C1.000000,143.739456 1.000000,72.478912 1.000000,1.000000
	C72.354080,1.000000 143.708374,1.000000 215.531342,1.000000
z"/>
<path fill="#FEFEFE" opacity="1.000000" stroke="none"
	d="
M461.000000,211.531342
	C460.090363,206.045425 459.176117,200.091553 458.271820,194.136154
	C454.838318,171.524307 447.639923,150.128891 437.658325,129.595612
	C427.879150,109.478706 415.228455,91.321297 400.110138,74.932724
	C384.732788,58.263390 367.121368,44.268448 347.570862,32.718422
	C323.352631,18.410801 297.225433,9.280032 269.661896,4.254879
	C261.675507,2.798867 253.465134,2.571450 245.178726,1.390404
	C316.926178,1.000000 388.852325,1.000000 461.000000,1.000000
	C461.000000,71.020737 461.000000,141.041718 461.000000,211.531342
z"/>
<path fill="#FEFEFE" opacity="1.000000" stroke="none"
	d="
M107.970146,425.277161
	C136.496185,443.638641 167.460800,455.257294 201.264297,459.041931
	C204.389435,459.391846 207.502258,459.851929 210.810394,460.630432
	C141.072281,461.000000 71.144569,461.000000 1.000000,461.000000
	C1.000000,389.979248 1.000000,318.958282 0.999999,247.468658
	C1.947571,253.276749 2.892967,259.553833 3.843139,265.830200
	C6.604214,284.068542 11.461473,301.704712 18.495865,318.783051
	C26.501043,338.218323 36.980827,356.160492 49.875549,372.730255
	C63.607777,390.376190 79.580650,405.675446 97.790909,418.642334
	C99.951111,420.180542 102.145523,421.670685 104.819611,423.487000
	C106.200150,424.286346 107.085152,424.781738 107.970146,425.277161
z"/>
<path fill="#FEFEFE" opacity="1.000000" stroke="none"
	d="
M249.468658,461.000000
	C254.804855,460.208008 260.617462,459.468597 266.413177,458.614441
	C286.502563,455.653748 305.766296,449.903442 324.336792,441.684113
	C351.649872,429.595337 375.549835,412.736389 396.420074,391.376312
	C422.498718,364.685608 440.905182,333.367462 451.537994,297.822327
	C456.024292,282.824768 457.456970,266.913727 460.638824,251.208954
	C461.000000,320.927368 461.000000,390.854736 461.000000,461.000000
	C390.645935,461.000000 320.291626,461.000000 249.468658,461.000000
z"/>
<path fill="#FEFEFE" opacity="1.000000" stroke="none"
	d="
M179.059494,42.021744
	C199.684601,36.030327 220.760300,33.902672 242.147156,35.108887
	C270.150879,36.688282 296.741669,43.722168 321.635712,56.755802
	C349.429718,71.307762 372.583984,91.251602 390.918762,116.765282
	C409.662567,142.848145 421.222565,171.807556 425.867798,203.551376
	C430.176788,232.997528 427.441864,261.849854 418.703278,290.245117
	C410.989563,315.310089 398.605469,337.867188 381.597137,357.675079
	C373.770447,366.790039 364.402527,374.581604 355.364746,382.568970
	C351.021362,374.337067 347.099152,366.482178 343.061798,358.686981
	C332.486511,338.268524 321.880615,317.865875 311.249084,297.476593
	C302.893402,281.451874 294.416107,265.490326 286.110657,249.439728
	C275.465027,228.866562 264.993408,208.203323 254.341125,187.633606
	C246.034073,171.592529 237.491440,155.673401 229.189514,139.629700
	C220.588074,123.007240 212.179276,106.285217 203.632843,89.634132
	C195.477493,73.744980 187.253372,57.891121 179.059494,42.021744
z"/>
<path fill="#FEFEFE" opacity="1.000000" stroke="none"
	d="
M101.984390,378.666595
	C92.339096,368.453705 81.936172,358.842590 73.231041,347.882935
	C61.027081,332.518280 52.113407,314.992798 45.726303,296.442261
	C37.391380,272.234497 33.666103,247.215836 35.044548,221.558350
	C36.575706,193.058319 43.609119,166.019791 56.861229,140.679489
	C72.059105,111.618576 93.267479,87.793007 120.174057,69.158745
	C127.465897,64.108742 135.573853,60.237129 143.761505,56.242615
	C150.634827,68.992805 157.084732,81.309090 163.466064,93.660812
	C174.555389,115.125404 185.560349,136.633636 196.678482,158.083267
	C208.559387,181.004440 220.581329,203.852859 232.336868,226.837814
	C233.052185,228.236435 232.645020,231.135361 231.606979,232.353638
	C225.064301,240.032318 218.119980,247.366623 211.450607,254.939972
	C199.168991,268.886261 187.034119,282.961792 174.748810,296.904816
	C160.067017,313.567657 145.310379,330.164764 130.549911,346.758087
	C121.061844,357.424316 111.508484,368.032440 101.984390,378.666595
z"/>
<path fill="#090808" opacity="1.000000" stroke="none"
	d="
M101.984596,379.006653
	C111.508484,368.032440 121.061844,357.424316 130.549911,346.758087
	C145.310379,330.164764 160.067017,313.567657 174.748810,296.904816
	C187.034119,282.961792 199.168991,268.886261 211.450607,254.939972
	C218.119980,247.366623 225.064301,240.032318 231.606979,232.353638
	C232.645020,231.135361 233.052185,228.236435 232.336868,226.837814
	C220.581329,203.852859 208.559387,181.004440 196.678482,158.083267
	C185.560349,136.633636 174.555389,115.125404 163.466064,93.660812
	C157.084732,81.309090 150.634827,68.992805 144.139984,56.317291
	C143.428818,53.764866 142.983444,51.477325 142.111969,49.365639
	C140.918091,46.472717 139.400696,43.713306 137.756104,40.353554
	C147.929398,35.051197 157.825317,29.893406 167.635239,24.780445
	C171.422821,30.827692 174.894333,36.370277 178.712662,41.967300
	C187.253372,57.891121 195.477493,73.744980 203.632843,89.634132
	C212.179276,106.285217 220.588074,123.007240 229.189514,139.629700
	C237.491440,155.673401 246.034073,171.592529 254.341125,187.633606
	C264.993408,208.203323 275.465027,228.866562 286.110657,249.439728
	C294.416107,265.490326 302.893402,281.451874 311.249084,297.476593
	C321.880615,317.865875 332.486511,338.268524 343.061798,358.686981
	C347.099152,366.482178 351.021362,374.337067 355.018982,382.523621
	C357.564789,388.590546 359.664307,394.541046 362.749359,399.927032
	C365.062408,403.965149 364.987122,406.453674 360.765839,408.563629
	C352.359375,412.765625 343.975250,417.012390 335.648651,421.207062
	C331.920380,415.524445 328.451233,410.236755 324.533447,404.505096
	C300.333191,358.099182 276.581543,312.137238 252.382355,265.309204
	C212.220169,310.877045 172.552505,355.883759 132.884857,400.890503
	C128.278183,405.216614 123.572510,409.443268 119.096100,413.900238
	C115.503372,417.477264 112.188591,421.333466 108.360313,425.171509
	C107.085152,424.781738 106.200150,424.286346 105.171959,423.572388
	C104.127815,421.843964 103.513695,420.024048 102.275566,418.878632
	C97.312332,414.286987 92.141045,409.920959 87.082100,405.431580
	C85.999580,404.470978 85.064949,403.343719 83.766403,401.983368
	C89.039566,395.941711 94.170662,390.174255 99.149345,384.278107
	C100.353027,382.852631 101.053131,381.001923 101.984596,379.006653
z"/>
<path fill="#FEFEFE" opacity="1.000000" stroke="none"
	d="
M133.068848,401.105072
	C172.552505,355.883759 212.220169,310.877045 252.382355,265.309204
	C276.581543,312.137238 300.333191,358.099182 324.173401,404.347961
	C303.834381,415.194855 282.329071,422.451416 259.543213,425.817413
	C231.195938,430.005005 203.315918,427.771027 175.862640,419.751282
	C160.898697,415.379974 146.510544,409.649261 133.068848,401.105072
z"/>
</svg>
